<svg xmlns="http://www.w3.org/2000/svg" width="88" height="31" version="2.0"><rect width="100%" height="100%" fill="#65a5d5"/><style><![CDATA[@keyframes e{0%{--a:0deg}to{--a:360deg}}@keyframes t{0%{--u:none;--m:inline;--w:none;--f:inline;--g:none}19.88%{--u:inline;--m:none;}30.12%{--w:inline;--f:none}50%{--g:inline}69.88%{--u:none;--m:inline}80.12%{--w:none;--f:inline}to{--u:none;--m:inline;--w:none;--f:inline;--g:none}}@property --a{syntax:"<angle>";inherits:true;initial-value:0deg}:root{--o:perspective(80px);--i:matrix3d(33.0,-5.625,0.0,0.0,-2.0,3.75,0.0,0.0,-28.6,5.9375,0.0,0.0,-26.6,3.1875,0.0,1.0);--n:matrix3d(18.4615,-8.6538,0.0,0.0,7.6923,5.7692,0.0,0.0,-10.6692,9.6731,0.0,0.0,-18.3615,4.9038,0.0,1.0);--s:matrix3d(3.0578,0.1133,0.9626,0.0,-0.0849,2.7746,-1.4156,0.0,-1.2358,0.3709,-1.5974,0.0,-1.1509,-1.4037,-0.1818,1.0);--h:matrix3d(3.0481,0.107,1.0695,0.0,-0.3209,2.6203,1.2032,0.0,-1.6733,2.915,-0.1003,0.0,-1.0316,-1.3257,-1.5067,1.0);--r:matrix3d(4.1379,0.6897,-1.7241,0.0,-0.1149,2.7586,-1.341,0.0,-1.7874,2.8966,-2.8525,0.0,-1.5575,-1.6207,0.8295,1.0);--d:matrix3d(4.0598,0.641,-1.0328,0.0,-0.4274,2.5641,1.4245,0.0,-2.2286,2.6218,1.0538,0.0,-1.3739,-1.5064,-0.7952,1.0);--l:matrix3d(4.1159,4.4207,0.0,0.0,2.439,12.8049,0.0,0.0,2.997,20.2652,-1.0,0.0,-1.8811,-4.3445,0.0,1.0);--c:matrix3d(1.4151,9.434,0.0,0.0,10.8491,-19.3396,0.0,0.0,11.6509,-25.9104,-1.0,0.0,-10.0472,13.7689,0.0,1.0)}#z,#z *{transform-style:preserve-3d}]]></style><defs><mask id="u"><use href="#e"/><path fill="#fff" d="M.9.3.88.47.9.5z"/></mask><mask id="m"><use href="#e"/><path fill="#fff" d="M.9.5.88.47V.6z"/></mask><mask id="w"><use href="#e"/><path fill="#fff" d="m.38.13.5.34-.49.02z"/></mask><mask id="f"><use href="#e"/><path fill="#fff" d="m.38.13.01.36-.36.09z"/></mask><mask id="g"><use href="#e"/><path fill="#fff" d="m.39.49.04.38-.4-.29z"/></mask><mask id="y"><use href="#e"/><path fill="#fff" d="M.39.49.88.47l-.45.4z"/></mask><mask id="p"><use href="#e"/><path fill="#fff" d="M.38.13.58.1.7 0z"/></mask><mask id="b"><use href="#e"/><path fill="#fff" d="M.43.87.5.93l.1.01z"/></mask><filter id="o"><feTurbulence baseFrequency=".06" numOctaves="2" result="e"/><feColorMatrix in="e" result="t" type="hueRotate" values="0"><animate attributeName="values" dur="5s" repeatCount="indefinite" values="0;360"/></feColorMatrix><feColorMatrix in="t" result="n" values="1 0 0 0 0 1 0 0 0 0 1 0 0 0 0 0 0 0 0 1"/><feBlend in="SourceGraphic" in2="n" mode="multiply" result="s"/><feGaussianBlur in="s" result="h" stdDeviation="2"/><feBlend in="h" in2="h" mode="soft-light" result="r"/><feComponentTransfer in="r" result="d"><feFuncR tableValues="0 1 1 1 1 1 1 1 1 1 1 1 1 1 1 1 1 1 1 1 1 1 1 1 1 1 1 1 1 1 1 1 1 1 1 1 1 1 1 1 1" type="discrete"/><feFuncG tableValues="0 1 1 1 1 1 1 1 1 1 1 1 1 1 1 1 1 1 1 1 1 1 1 1 1 1 1 1 1 1 1 1 1 1 1 1 1 1 1 1 1" type="discrete"/><feFuncB tableValues="0 1 1 1 1 1 1 1 1 1 1 1 1 1 1 1 1 1 1 1 1 1 1 1 1 1 1 1 1 1 1 1 1 1 1 1 1 1 1 1 1" type="discrete"/></feComponentTransfer><feComponentTransfer color-interpolation-filters="sRGB" in="SourceGraphic" result="l"><feFuncR tableValues="0 1 0.67 0.33" type="table"/><feFuncG tableValues="0 1 0.67 0.33" type="table"/><feFuncB tableValues="0 1 0.67 0.33" type="table"/></feComponentTransfer><feColorMatrix in="t" result="c" values="0 1 0 0 0 0 1 0 0 0 0 1 0 0 0 0 0 0 0 1"/><feBlend in="l" in2="c" mode="multiply" result="u"/><feGaussianBlur in="u" result="a" stdDeviation="2"/><feBlend in="a" in2="a" mode="soft-light" result="o"/><feComponentTransfer in="o" result="i"><feFuncR tableValues="0 1 1 1 1 1 1 1 1 1 1 1 1 1 1 1 1 1 1 1" type="discrete"/><feFuncG tableValues="0 1 1 1 1 1 1 1 1 1 1 1 1 1 1 1 1 1 1 1" type="discrete"/><feFuncB tableValues="0 1 1 1 1 1 1 1 1 1 1 1 1 1 1 1 1 1 1 1" type="discrete"/></feComponentTransfer><feBlend in="d" in2="i" mode="lighten"/></filter><filter id="r"><feColorMatrix color-interpolation-filters="sRGB" in="SourceGraphic" values="0.459 0 0 0 0 0 0.773 0 0 0 0 0 0.918 0 0 1 1 1 0 0"/></filter><filter id="d"><feColorMatrix color-interpolation-filters="sRGB" in="SourceGraphic" values="0.592 0 0 0 0 0 0.918 0 0 0 0 0 0.886 0 0 1 1 1 0 0"/></filter><filter id="l"><feColorMatrix in="SourceGraphic" values="1 0 0 0 0 1 0 0 0 0 1 0 0 0 0 0 0.4 0 0 0"/></filter><filter id="c"><feTurbulence baseFrequency=".05" numOctaves="2" result="e"><animate attributeName="seed" dur="3.7s" keyTimes="0;0.1;0.12;0.5;0.52;0.54;1" repeatCount="indefinite" values="10;1;10;5;8;10;10"/></feTurbulence><feColorMatrix in="e" result="t" values="1 0 0 0.5 0 0 1 0 0.5 0 0 0 1 0.5 0 0 0 0 0 1"/><feComponentTransfer in="t" result="n"><feFuncR tableValues="0 1 1" type="discrete"/><feFuncG tableValues="0 0 1" type="discrete"/><feFuncB tableValues="0 1 1" type="discrete"/></feComponentTransfer><feComposite in="n" in2="SourceGraphic" operator="in" result="a"/><feBlend in="SourceGraphic" in2="a" mode="overlay" result="o"/><feDisplacementMap in="o" in2="e" result="i" scale="8" xChannelSelector="R" yChannelSelector="G"/><feOffset dx="-2" dy="-2" in="i"/></filter><linearGradient id="h"><stop offset="0%" stop-color="#fff"/><stop offset="50%"/><stop offset="100%" stop-color="#fff"/></linearGradient><linearGradient id="s"><stop offset="0%" stop-color="#555"/><stop offset="30%"/><stop offset="70%"/><stop offset="100%" stop-color="#555"/></linearGradient><linearGradient id="i" x1="0%" x2="100%" y1="0%" y2="100%"><stop offset="0%" stop-color="#ff0"/><stop offset="50.01%" stop-color="#ff0"/><stop offset="50.01%" stop-color="#0f0"/><stop offset="100%" stop-color="#0f0"/></linearGradient><g id="t" transform="scale(.02778)"><path fill="#FFAC33" d="M8.231 10c6-8 14-10 18-10 1 0 1 1 0 1s-6 2-7 9-11 0-11 0zm-1 18c4 3 13 8 18 8 3 0 2-1 1-1s-9-3-10-7-9 0-9 0z"/><path fill="#FFCC4D" d="M35 9c-1.611 0-4.059 2.972-5.268 6.294-1.475-5.62-6.166-10.739-12.945-10.739-8.273 0-12.061 10.216-14.524 14.479-.629 1.091-4.091 1.034-.989 3.103-3.103 2.068.449 2.243 1.222 3.103 2.625 2.92 8.997 6.205 14.291 6.205 5.655 0 11.12-3.786 12.863-8.958C30.828 25.896 33.353 29 35 29c2.209 0-2-5.582-2-10s4.209-10 2-10z"/><g fill="#F4900C"><path d="M18.001 17.967a.998.998 0 0 0 .966 1.032l.034.001a1 1 0 0 0 .998-.967c.201-6.065 5.758-8.816 6.35-9.092a13.767 13.767 0 0 0-1.51-1.467c-1.885 1.057-6.634 4.323-6.838 10.493zm5.018-2.163a1 1 0 0 0 1.962.392c.516-2.581 2.296-3.574 3.592-3.956a15.674 15.674 0 0 0-1.028-1.768c-1.877.691-3.908 2.246-4.526 5.332z"/><path d="M13 20a1 1 0 1 0 2 0c0-8.97 5.841-12.544 8.266-13.641a12.403 12.403 0 0 0-2.205-1.067C17.888 7.169 13 11.446 13 20z"/></g><circle cx="9.5" cy="15.5" r="1.5" fill="#292F33"/></g><g id="n" transform="scale(.02778)"><use href="#t" transform="scale(36)"/><circle cx="13.006" cy="21.782" r="4.211" fill="#ff7892"/><circle cx="9.216" cy="16.307" r="4.633" fill="#f5f8fa"/><circle cx="9.216" cy="16.307" r="2.106" fill="#292f33"/></g><rect id="e" width="100%" height="100%" x="0" y="0" fill="#000"/></defs><rect width="100%" height="100%" fill="url(#h)" filter="url(#o) url(#r)"/><rect width="100%" height="100%" fill="url(#s)" filter="url(#o) url(#d)"/><g id="z" style="animation:13.7s infinite e linear,13.7s infinite t step-end;--t:rotateX(0) rotateY(var(--a));--e:translate(66px, 31px) scale(13) var(--o) translateZ(40px) var(--t)"><use href="#t" mask="url(#b)" style="transform:var(--e) var(--c)"/><use href="#t" mask="url(#p)" style="transform:var(--e) var(--l)"/><use href="#t" mask="url(#u)" style="transform:var(--e) var(--i)"/><use href="#t" mask="url(#m)" style="transform:var(--e) var(--n)"/><use href="#t" mask="url(#w)" style="transform:var(--e) var(--s);display:var(--w)"/><use href="#t" mask="url(#y)" style="transform:var(--e) var(--h);display:var(--w)"><animate attributeName="href" dur="16s" keyTimes="0;0.95;1" repeatCount="indefinite" values="#t;#n;#t"/></use><use href="#t" mask="url(#f)" style="transform:var(--e) var(--r);display:var(--u)"><animate attributeName="href" dur="16s" keyTimes="0;0.95;1" repeatCount="indefinite" values="#t;#n;#t"/></use><use href="#t" mask="url(#g)" style="transform:var(--e) var(--d);display:var(--u)"><animate attributeName="href" dur="16s" keyTimes="0;0.95;1" repeatCount="indefinite" values="#t;#n;#t"/></use><use href="#t" mask="url(#w)" style="transform:var(--e) scaleZ(-1) var(--s);display:var(--m)"/><use href="#t" mask="url(#y)" style="transform:var(--e) scaleZ(-1) var(--h);display:var(--m)"><animate attributeName="href" dur="16s" keyTimes="0;0.95;1" repeatCount="indefinite" values="#t;#n;#t"/></use><use href="#t" mask="url(#f)" style="transform:var(--e) scaleZ(-1) var(--r);display:var(--f)"><animate attributeName="href" dur="16s" keyTimes="0;0.95;1" repeatCount="indefinite" values="#t;#n;#t"/></use><use href="#t" mask="url(#g)" style="transform:var(--e) scaleZ(-1) var(--d);display:var(--f)"><animate attributeName="href" dur="16s" keyTimes="0;0.95;1" repeatCount="indefinite" values="#t;#n;#t"/></use><g style="transform:var(--e) var(--l);display:var(--g)"><use href="#t" mask="url(#p)"/></g><g style="transform:var(--e) var(--c);display:var(--g)"><use href="#t" mask="url(#b)"/></g><g style="transform:var(--e) var(--n);display:var(--g)"><use href="#t" mask="url(#m)"/></g><g style="transform:var(--e) var(--i);display:var(--g)"><use href="#t" mask="url(#u)"/></g></g><path d="M15.041 6.428c-.105.04-.117.144-.17.225-.117.175-.043-.012-.109.2-.063.185-.014.074-.12.244-.025.042-.047.085-.074.126-.029.043-.07.078-.093.125-.025.051-.027.11-.046.164-.02.054-.048.105-.072.158-.111.209-.22.42-.306.641-.022.056-.036.115-.064.169-.028.054-.068.101-.102.152-.052.171-.157.314-.218.482-.02.052-.027.107-.048.158-.023.054-.123.217-.153.268-.226.406.076-.15-.124.26-.02.042-.05.08-.07.122-.02.041-.032.087-.051.128-.037.079-.083.153-.122.23a1.421 1.421 0 0 1-.123.322c-.023.049-.074.13-.09.183-.01.03-.011.063-.016.095-.11.123-.032.01-.083.188-.015.052-.044.099-.058.15a1.43 1.43 0 0 0-.034.422c.007.074.03.146.045.22.084.245.166.501.318.715.227.32.031-.027.214.327.331.497-.101-.164.217.36.04.065.087.125.127.19.043.068.076.142.122.208.273.397.064-.007.27.44.167.222.305.48.535.648.09.066.2.1.293.163.601.414-.193-.019.521.344.028.047.23-.07.203-.118.035-.962.014.27-.043-.604-.007-.107.021-.214.015-.322a2.182 2.182 0 0 0-.13-.545c-.034-.081-.087-.154-.131-.23-.04-.077-.081-.154-.12-.232-.038-.076-.07-.155-.11-.231-.038-.074-.09-.14-.125-.216-.034-.073-.046-.154-.081-.227-.032-.064-.078-.12-.117-.181l-.082-.183c-.03-.053-.068-.102-.091-.158-.022-.05-.024-.108-.042-.16-.026-.075-.07-.142-.098-.216-.027-.073.005-.06-.032-.07.007.034-.003.063-.012.096-.002.01.041-.18.04-.135.022-.024.05-.044.066-.072.017-.028.021-.06.033-.09.011-.032.025-.063.035-.095.011-.035.014-.073.027-.107.014-.035.038-.066.056-.1l.055-.107c.01-.041.015-.084.03-.124.031-.083.087-.156.122-.238.037-.085.048-.18.09-.264.021-.044.054-.082.082-.122.106-.34-.022.056.104-.288.058-.16.04-.155.112-.312.025-.052.057-.1.08-.152.025-.053.045-.108.067-.162.18-.306.009.009.142-.315.022-.052.053-.1.077-.152.024-.051.043-.105.07-.155.027-.051.064-.096.093-.146.028-.05.051-.102.077-.153l.072-.148c.03-.043.067-.081.092-.127.023-.042.03-.09.05-.135.047-.115.1-.23.172-.332.192-.237-.032.07.08-.182.017-.041.101-.068.066-.118.21-.305-1.1-1.205-1.31-.9zm-3.393.305c-.129.118-.166.232-.227.394-.036.04-.08.074-.108.12-.03.047-.041.103-.063.154-.022.052-.044.104-.069.155-.025.052-.057.1-.081.154-.24.528.12-.197-.15.337-.13.218-.197.466-.33.682-.177.284-.041 0-.172.3-.017.054-.028.11-.051.16-.044.095-.115.176-.16.272-.034.07-.068.194-.107.264-.023.04-.054.075-.08.112l-.051.118c-.02.036-.042.07-.058.108-.016.035-.023.074-.038.11-.013.034-.034.065-.047.1-.026.066-.042.136-.063.205-.076.18-.1.198-.104.425 0 .081.02.16.028.24.017.166.005.224.067.381.024.063.061.12.092.18.059.12.048.259.094.381.024.064.07.118.1.18.03.064.047.134.077.198.032.067.075.128.11.193.036.067.07.136.104.204.105.237.231.462.42.645.07.07.153.127.23.19.077.064.145.14.232.19.105.059.225.087.338.13.368.198.23.06.43.397.007.012.058-.023.05-.034-.216-.318-.15-.14-.188-.539.024-.115.068-.229.072-.347.003-.09-.034-.178-.05-.267-.035-.196-.046-.314-.1-.505-.022-.074-.05-.147-.077-.22l-.077-.207c-.027-.064-.052-.129-.08-.191-.028-.06-.065-.115-.089-.176-.031-.081-.062-.257-.089-.342-.015-.049-.037-.095-.056-.143l-.05-.125c-.007-.036-.011-.073-.02-.109-.006-.03-.023-.059-.025-.09-.001-.025.011-.049.016-.073v-.008c-.01.013-.01.038-.026.042-.011.002-.01-.022-.016-.032.024-.022.053-.04.073-.065.056-.073.044-.111.078-.195.014-.035.036-.067.051-.101.026-.056.068-.169.09-.225.045-.128.083-.259.131-.384.078-.205.038-.068.13-.27.022-.048.039-.098.058-.147.094-.2.05-.098.134-.307.025-.054.058-.104.084-.157.082-.169.143-.348.24-.508.047-.098.103-.222.161-.314.159-.251.036-.013.177-.26.023-.04.038-.086.063-.125.023-.036.055-.066.082-.1.015-.032.032-.065.046-.099.013-.03.016-.064.033-.092.014-.023.043-.034.056-.058.01-.02.003-.045.012-.065.008-.019.047-.048.064-.06.182-.309-1.14-1.09-1.321-.781Zm-5.652 5.912c.023.045.037.078.077.113.026.02.06.03.085.052.027.025.116.159.142.18.034.028.076.041.114.062.159.19.017.082.382 0 .076-.016.154-.013.232-.02.074.076.401-.244.326-.32.017-.084.03-.167.05-.25.076-.311.143-.19-.007-.348-.043-.058-.065-.091-.114-.14-.04-.039-.085-.066-.077-.13-.187-.282-1.397.519-1.21.801zm-.203-2.28c-.004.015-.017.03-.01.042.01.022.039.031.056.05.094.098-.036-.02.056.1.014.017.035.028.052.042l.044.062c.08.083.167.16.253.236.026.023.045.055.076.07.04.02.086.02.13.029l.315-.137c.095.102.533-.305.438-.407l.157-.279c0-.043.01-.086.002-.128-.02-.102-.057-.061-.11-.134-.017-.022-.014-.056-.032-.077-.096-.114-.044.048-.076-.094a.273.273 0 0 1-.09-.09c-.002-.004.01.036.014 0-.167-.297-1.442.418-1.275.716Zm-.154-1.77c.068.008.135.035.2.003.022-.01.037-.032.06-.039.035-.01.11.01.142.017.027-.003.054-.008.082-.01.031-.002.063 0 .095-.003.171-.015.053-.017.23-.029l.232-.005c.055.001.106.024.16.03.135.016.055-.02.179.023.301.105-.173-.041.152.057.036.03.085.028.125.048a.418.418 0 0 1 .165.158c.013.025.017.053.025.08.076.054.138.125.199.196.024.027.055.05.07.084.195.436-.16-.186.075.21.069.098.091.228.137.333.018.041.05.076.065.119s.012.09.022.135c.01.044.023.087.035.131.037.139.03.124.078.259.016.043.041.084.05.129.009.049-.003.1.002.149.043.42.02-.136.031.294.023.152.043.304.05.458.001.053-.004.106 0 .159.043.537.012-.229.03.32-.033.268-.015.061-.02.33-.005.175-.013.151-.01.326.005.382.012-.056.003.326l-.027.161c-.023.145-.031.173-.038.318-.004.07 0 .246-.009.315-.006.052-.021.103-.032.154 0 .052.004.104 0 .156-.005.05-.02.1-.026.15-.013.097-.016.194-.03.29-.034.232-.028.036-.024.264-.045.102-.026.217-.052.323-.007.028-.023.054-.032.082-.023.065-.02.063-.03.126.01.011-.022.022-.017.034.003.01.013.015.021.022.028.024.064.04.086.07.053.073.09.156.136.235-.097.047.104.463.2.416.097.052.184.128.29.156.226.06.245-.014.374-.14.176-.174.105-.077.215-.298.014-.052.025-.105.042-.156.043-.128.077-.156.107-.288.01-.047.007-.097.018-.145.058-.254.054-.024.04-.279.06-.228.024-.042.03-.278.003-.1.022-.2.026-.299.003-.053-.003-.106.001-.158.004-.055.015-.109.023-.163.007-.052.038-.277.04-.33 0-.055-.013-.11-.01-.166.001-.056.014-.111.02-.167.018-.174.014-.163.016-.338.004-.366-.005.02.02-.348.009-.116.009-.234.016-.35.003-.059.012-.118.012-.176 0-.06-.009-.121-.013-.181l-.003-.185c0-.063.008-.126.006-.188s-.012-.122-.017-.183c-.016-.185-.023-.371-.053-.555-.028-.241-.075-.48-.114-.72-.01-.06-.014-.12-.026-.18-.012-.056-.033-.11-.049-.165-.259-.587.123.276-.141-.313-.024-.051-.05-.101-.068-.155-.018-.055-.018-.116-.039-.17-.043-.112-.13-.203-.17-.316-.07-.127-.091-.18-.185-.29-.035-.043-.08-.077-.115-.12s-.059-.094-.092-.138c-.092-.123-.125-.147-.236-.254-.048-.035-.093-.075-.143-.107-.047-.029-.1-.048-.148-.073l-.143-.08-.15-.074c-.051-.026-.1-.06-.154-.078-.05-.017-.103-.019-.155-.028-.191-.02-.382-.066-.575-.072-.044-.001-.087.003-.131.003l-.17-.001c-.04.01-.08.024-.12.027-.182.017-.36-.068-.542-.029-.029-.003-.058-.01-.088-.009-.025 0-.05.015-.074.01-.023-.003-.04-.024-.062-.032-.012-.005-.05-.009-.038-.006.049.009.044-.008.037.03-.268-.023-.368 1.128-.1 1.151ZM4.322 7.451c-.01.083.03.159.027.242 0 .029-.007.058-.01.087.015.073-.023.143-.018.214.003.045.026.086.03.13.025.24-.028.035-.014.282.003.05.02.1.029.15-.013.155.004.31.002.465 0 .053-.008.107-.005.16.041.614.021-.285.03.344-.054.236.005.47.023.706.009.122.01.245.015.367-.008.062-.025.123-.024.185 0 .061.024.12.029.181.005.061-.002.123.002.184.004.063.016.124.021.187.01.126.012.253.019.38.002.065.007.13.006.195 0 .131-.014.261-.015.392-.003.19.003.38.013.57-.02.186.03.367.03.552 0 .062-.013.123-.012.185.003.137.03.228.06.36.039.1.096.263.162.35.05.065.116.118.176.174.067.062.145.111.205.18.044.052.068.118.102.177 0 .014.06.015.06.001.04-.058.072-.121.118-.174.06-.067.133-.12.197-.182.063-.061.13-.119.182-.189.095-.126.11-.22.152-.367.033-.154.051-.207.056-.365a4.077 4.077 0 0 0-.02-.366c-.008-.06-.025-.12-.028-.18-.002-.062.01-.122.014-.183-.019-.247-.019-.123.001-.372-.003-.064-.026-.126-.03-.19-.01-.2.061-.4 0-.598.032-.398.01-.008.003-.398 0-.065.009-.13.006-.194-.003-.062-.017-.124-.022-.187-.012-.16-.006-.202 0-.362-.009-.217-.003-.142-.024-.36-.006-.058-.022-.117-.018-.176.004-.06.038-.117.04-.178.003-.114-.067-.222-.05-.337.008-.056.022-.111.025-.167.003-.054-.009-.108-.01-.162 0-.054.004-.107.005-.16.002-.153-.003-.306.01-.458-.007-.047-.023-.094-.021-.142 0-.045.023-.089.028-.134.005-.042 0-.085.003-.127.003-.041.018-.08.017-.121 0-.04-.022-.077-.02-.116.003-.036.022-.069.033-.104-.012-.031-.033-.061-.034-.095-.002-.03.016-.058.025-.086 0-.025.005-.05.003-.074-.004-.045-.04-.089.01-.118-.005-.372-1.6-.35-1.594.022Zm2.625-.533.098-.013c.238.052-.242.041.231.052.04 0 .08-.011.12-.013.04-.002.08 0 .12 0 .113.028.252-.049.358-.05.043-.001.084.022.127.021.042 0 .083-.018.124-.027l.13.002.134-.01c.045 0 .09.002.136 0 .045-.004.09-.013.135-.017.046-.005.092-.006.138-.01.045-.004.09-.016.136-.015.047.001.093.015.139.022.148-.029.299-.022.448-.037.056-.005.11-.021.167-.024.06-.003.118.005.177.007l.18-.012c.06-.007.12-.018.18-.022.339-.025.026.02.383-.02.107-.012.314-.051.421-.057.071-.004.143.002.214.004.209-.005.41-.074.62-.068.07.002.139.023.209.026.067.003.134-.006.202-.008l.198-.003c.806-.003-.405.01.38-.026.061-.002.123.009.184.009.058 0 .116-.006.174-.008.057-.002.122.025.17-.005.069-.044.098-.13.148-.196.236-.276.123-.102.282-.556.05-.003.034-.214-.016-.21-.234-.437-.102-.254-.374-.566-.061-.048-.112-.112-.183-.143-.053-.022-.115-.01-.173-.01-.332-.001-.028.012-.363.048-.6.066.223-.073-.388.038-.367-.028-.045-.02-.411.022-.158.019-.268.005-.426.018-.071.006-.141.024-.213.03-.07.005-.142.001-.213.002-.442.043.018.002-.42.033-.068.004-.135.014-.202.017-.186.007-.375-.014-.558.035-.324.016-.65.008-.973.058-.047.004-.093.006-.14.012-.046.005-.091.018-.137.02-.07.005-.212-.012-.281-.01-.046.001-.092.008-.137.013l-.134.02c-.367.06.105-.007-.262.013-.158.008-.305.106-.464.04-.055-.003-.102-.02-.149.02-.006.006.031-.006.028.002-.001.002-.07.027-.037.04-.353-.055-.59 1.457-.237 1.512zm2.66-5.65c-.005.006-.008.015-.015.018-.014.006-.031.001-.045.008-.033.017-.063.068-.09.088-.022.017-.05.026-.073.039l-.07.053c-.121.068-.24.144-.346.233-.03.025-.055.055-.087.077-.033.024-.072.039-.108.058-.09.098-.078.101-.198.167-.04.022-.087.034-.127.058-.177.106-.05.064-.224.177-.043.028-.09.045-.136.068-.087.048-.151.128-.235.18-.043.026-.092.038-.135.064-.042.026-.08.058-.118.09-.038.031-.067.075-.11.1-.044.026-.097.033-.145.05-.315.236.083-.056-.24.16-.04.028-.073.063-.115.088-.042.025-.094.033-.135.06-.39.268.18-.042-.246.177-.128.092-.267.162-.404.236-.088.048-.17.106-.258.152-.043.022-.088.039-.132.059-.344.205.109-.054-.254.117-.041.02-.076.052-.117.072-.083.04-.18.044-.248.115-.036.039-.053.092-.08.138-.024.049-.062.093-.073.147-.017.086-.008.175-.011.263-.014.385.006.16-.037.513-.028.012.024.132.052.12.067.05.135.098.202.15.096.074.335.277.447.336.055.028.12.034.179.051.055.002.11.014.165.006.05-.008.096-.037.145-.05.053-.015.11-.016.163-.034.16-.055.278-.186.442-.233.346-.165-.035.028.29-.173.047-.029.1-.046.146-.076.048-.03.086-.075.133-.107.118-.08.18-.096.312-.148.048-.031.093-.066.143-.094.05-.028.107-.04.154-.072.046-.03.077-.08.121-.113.043-.031.093-.052.139-.079.202-.12.06-.048.27-.144.107-.116.095-.12.232-.199.045-.025.096-.04.14-.068.044-.026.082-.062.123-.093.082-.059.17-.117.254-.173.08-.06.159-.125.24-.184.184-.135.055-.029.241-.157.198-.136.016-.035.226-.141.028-.03.051-.064.084-.087.032-.023.072-.03.105-.048.032-.019.06-.044.092-.064.03-.02.066-.035.095-.059.03-.023.05-.058.08-.081.029-.022.064-.036.096-.053.05-.04.102-.076.151-.116.021-.017.04-.036.06-.055.016-.016.026-.039.046-.048.018-.008.04.008.059 0 .011-.005.01-.022.016-.033.352-.287-.88-1.793-1.23-1.506Zm-1.382-.216c.014.026.046.096.074.117.015.011.039.006.05.019.011.011.002.032.01.045.009.016.068.051.08.059.12.13-.043-.041.107.095.024.02.04.05.065.068.027.02.067.02.09.045.026.025.03.067.05.097.022.03.05.054.076.08.028.028.055.057.085.082.392.326-.191-.185.207.166.037.032.074.064.11.098.036.034.068.072.106.103.04.033.084.058.126.087.043.03.086.058.13.087.039.038.074.081.118.113.046.034.107.046.151.083.045.037.066.097.108.137.067.062.222.142.3.184.095.092.162.165.274.239.053.035.114.057.168.092.054.035.102.08.155.117.14.103.182.129.328.225.021.016.308.228.332.243.059.035.126.056.185.092.06.037.112.085.17.125.193.135.16.11.37.219.07.026.144.041.209.078s.108.106.174.141c.071.04.157.043.23.079.07.034.127.094.197.128.298.103.155.04.43.189.188.04.416.23.605.246a.678.678 0 0 0 .232-.03c.284-.077.325-.157.572-.352.091.04.264-.35.173-.39-.015-.236.005-.429-.107-.64-.087-.163-.167-.174-.32-.248-.245-.118-.128-.068-.386-.161-.553-.217.149.07-.376-.184-.062-.03-.13-.046-.193-.074-.176-.079-.331-.195-.494-.296-.058-.027-.117-.05-.173-.082-.18-.1-.135-.108-.32-.198-.058-.029-.126-.037-.18-.072-.055-.034-.093-.089-.14-.133l-.162-.093-.146-.107c-.045-.039-.088-.08-.135-.116-.06-.046-.228-.152-.29-.197-.046-.033-.088-.073-.135-.106-.047-.033-.097-.061-.146-.092-.039-.04-.075-.084-.117-.121-.046-.04-.208-.152-.257-.19a2.423 2.423 0 0 1-.115-.098c-.036-.032-.066-.07-.105-.098-.038-.028-.083-.046-.125-.07-.199-.18-.005.004-.185-.19-.055-.059-.116-.111-.172-.17-.026-.027-.047-.06-.076-.084-.029-.024-.064-.039-.096-.058-.022-.025-.04-.055-.065-.077-.044-.037-.107-.045-.139-.1C9.904.183 9.913.153 9.901.13 9.9.127 9.827.076 9.82.072c-.032-.152.02.043-.039-.062-.035-.065.01-.041.017.02-.238-.367-1.811.655-1.573 1.022ZM1.808 16.25c.058.007-.001.004.01-.008.042-.047.016.029.054-.026.01-.014.015-.073.017-.085.057-.05.082-.123.121-.187a.731.731 0 0 0 .119-.275c.052-.094.064-.106.098-.21.013-.041.017-.084.032-.124.016-.043.045-.08.06-.124.117-.307-.053.038.104-.26.01-.105.098-.17.134-.26.02-.047.013-.102.033-.148.021-.046.066-.08.09-.125.034-.066.072-.233.089-.302l.07-.156c.022-.054.042-.11.065-.164.025-.056.059-.108.08-.166.022-.06.026-.126.05-.185.025-.061.068-.113.097-.172.028-.058.05-.12.075-.179.017-.129.112-.225.15-.344.02-.06.012-.127.033-.186.02-.058.063-.107.09-.162.054-.109.1-.222.15-.332.027-.068.102-.256.123-.327.05-.167.026-.165.093-.327.129-.307.041.005.118-.318.057-.213.046-.112.04-.337-.001-.056.024-.12-.005-.168-.056-.09-.454-.409-.523-.466.002-.008-.034-.018-.037-.01-.055.009-.61.085-.674.112-.051.023-.073.085-.11.127-.14.167-.1.08-.13.289-.071.196-.163.386-.225.585-.017.052-.024.107-.04.16-.018.053-.041.104-.061.157-.02.054-.037.109-.058.162-.02.055-.047.107-.066.162-.02.056-.028.116-.05.17-.022.057-.057.106-.081.162-.05.111-.075.232-.136.34-.022.058-.045.116-.065.175-.02.06-.035.12-.058.179-.022.057-.052.112-.076.169l-.127.33c-.025.051-.057.1-.086.15-.066.14-.12.285-.189.424-.021.045-.051.085-.07.13-.02.045-.03.094-.046.14l-.06.13c-.004.013-.084.236-.091.252-.081.196-.021.033-.113.22-.158.32.069-.1-.099.204-.022.028-.047.054-.066.084-.071.115-.084.258-.154.374-.006.022-.013.043-.017.065-.004.019-.002.038-.008.056-.006.018-.021.03-.028.047-.014.034-.015.077-.026.112-.11.322 1.272.788 1.38.466zM.148 5.947c.02.1-.006-.005.056.124.014.028.02.06.034.088.025.053.062.1.09.152.018.032.034.066.051.099.032.037.099.117.138.146.028.02.064.026.09.048.07.056.06.094.118.16.023.025.053.044.08.066.019.03.033.064.058.09.025.027.06.042.087.066.028.025.053.053.081.079.029.026.062.047.09.074.288.289-.14-.1.17.175.022.034.04.072.069.102.028.029.07.043.1.071.028.028.045.065.07.095.075.086.16.168.242.247l.07.088c.029.025.06.047.084.076.106.171.007.028.137.172.023.026.033.068.065.083.042.02.093.008.139.012.527-.211.08-.072.421-.11.062-.008.122-.026.183-.038.097.107.556-.308.46-.415.019-.059.044-.116.057-.177.07-.323-.134.118.156-.387-.002-.043.012-.09-.006-.129-.015-.032-.058-.04-.083-.065-.025-.026-.042-.059-.064-.087-.072-.094-.166-.165-.218-.274a15.259 15.259 0 0 1-.28-.256c-.061-.058-.132-.106-.192-.167-.03-.03-.052-.064-.078-.097-.339-.287.143.133-.164-.172-.028-.027-.068-.04-.094-.07-.025-.03-.029-.074-.056-.101-.304-.307.08.185-.165-.143-.026-.02-.057-.034-.08-.058-.022-.023-.03-.056-.05-.08-.02-.023-.046-.037-.065-.06-.017-.02-.025-.048-.042-.067-.014-.016-.034-.024-.05-.036l-.028-.036c-.032-.022.002-.004-.052-.007-.003 0-.005-.009-.005-.006 0 .005.006.01.006.015 0 .064-.014.02 0 .057-.153-.38-1.782.273-1.63.653Zm.886-4.058a163 163 0 0 1 .016.02c.006.017.008.038.02.053.007.01.027.008.035.02.036.052-.014.072.064.098.034.037.08.059.121.087.017.01.03.027.047.036.015.008.036.005.049.016.016.013.022.035.033.052.168.091-.06-.037.11.076.02.013.045.017.063.033.02.018.023.05.044.067.02.016.051.017.075.03.022.012.042.03.063.044.01.022.011.05.028.067.016.016.043.014.062.026.02.013.034.032.052.047.02.016.044.026.06.046.114.14-.047.023.11.12.044.03.075.074.115.108.057.047.071.036.115.098.171.24-.1-.095.09.133.056.104.014.046.097.126.017.017.028.042.05.051.032.014.067.008.1.013.03.004.06.02.09.016.066-.009.128-.035.192-.052l.42-.208c.062.091.455-.178.392-.27l.326-.317c.03-.057.069-.11.09-.171a.491.491 0 0 0-.032-.332c-.036-.053-.116-.067-.134-.137-.044-.053-.092-.104-.135-.159-.023-.03-.038-.065-.064-.093-.025-.026-.061-.041-.089-.066-.053-.047-.09-.11-.15-.15-.02-.03-.033-.065-.057-.092-.025-.028-.059-.045-.087-.068-.232-.19.051.041-.174-.166-.06-.055-.131-.095-.186-.156-.03-.017-.06-.032-.09-.05-.059-.038-.1-.08-.16-.12C2.726.712 2.639.67 2.56.613c-.174-.155.046.02-.162-.077-.02-.01-.028-.034-.045-.048-.048-.04-.107-.024-.142-.08-.06-.013-.09-.005-.149-.003-.007 0-.014-.006-.021-.004-.008.003-.01.015-.019.018C2.018.42 2.014.415 2.01.413 1.665.186.69 1.662 1.034 1.89Z" style="fill:#000;fill-opacity:1;stroke-width:.264583" transform="matrix(1.5 0 0 1.5 59 3.3)"><animate attributeName="filter" dur="16s" keyTimes="0;0.95;1" repeatCount="indefinite" values="none;url(#c);none"/></path><g filter="url(#l)"><rect x="-1" y="-1" width="33" height="33" fill="url(#i)"/><rect x="56" y="-1" width="33" height="33" fill="url(#i)"/><path fill="#ff0" d="M10-1h68v12H10z"/><path fill="#0f0" d="M10 20h68v12H10z"/><path fill="red" d="M2.01 2.01H86V29H2.01z"/></g></svg>